<?xml version="1.0" encoding="utf-8"?>
<!-- Generator: Adobe Illustrator 16.0.0, SVG Export Plug-In . SVG Version: 6.00 Build 0)  -->
<!DOCTYPE svg PUBLIC "-//W3C//DTD SVG 1.1//EN" "http://www.w3.org/Graphics/SVG/1.1/DTD/svg11.dtd">
<svg version="1.1" id="Layer_1" xmlns="http://www.w3.org/2000/svg" xmlns:xlink="http://www.w3.org/1999/xlink" x="0px" y="0px"
	 width="58.667px" height="50.167px" viewBox="0 0 58.667 50.167" enable-background="new 0 0 58.667 50.167" xml:space="preserve">
<g display="none">
	<g display="inline">
		<defs>
			<path id="SVGID_1_" d="M39.316,22.241c0.025-0.4-0.279-0.746-0.681-0.771c-0.401-0.024-0.746,0.279-0.771,0.681
				c-0.281,4.488-4.028,8.004-8.531,8.004c-1.332,0-2.607-0.297-3.791-0.884c-0.359-0.179-0.796-0.031-0.975,0.328
				c-0.178,0.36-0.031,0.797,0.329,0.975c1.386,0.688,2.879,1.036,4.437,1.036C34.603,31.609,38.987,27.494,39.316,22.241z"/>
		</defs>
		<clipPath id="SVGID_2_">
			<use xlink:href="#SVGID_1_"  overflow="visible"/>
		</clipPath>
		<g clip-path="url(#SVGID_2_)">
			<defs>
				<rect id="SVGID_3_" x="-339.059" y="-1116.74" width="1400" height="1773"/>
			</defs>
			<clipPath id="SVGID_4_">
				<use xlink:href="#SVGID_3_"  overflow="visible"/>
			</clipPath>
			<rect x="19.491" y="16.468" clip-path="url(#SVGID_4_)" fill="#1C3665" width="24.826" height="20.141"/>
		</g>
	</g>
	<g display="inline">
		<defs>
			<path id="SVGID_5_" d="M22.733,27.038c-0.256-0.31-0.715-0.354-1.024-0.099c-0.31,0.256-0.354,0.714-0.099,1.024
				c0.271,0.33,0.567,0.646,0.879,0.938c0.141,0.132,0.32,0.196,0.498,0.196c0.193,0,0.387-0.076,0.531-0.229
				c0.274-0.293,0.26-0.753-0.033-1.028C23.219,27.59,22.966,27.32,22.733,27.038z"/>
		</defs>
		<clipPath id="SVGID_6_">
			<use xlink:href="#SVGID_5_"  overflow="visible"/>
		</clipPath>
		<g clip-path="url(#SVGID_6_)">
			<defs>
				<rect id="SVGID_7_" x="-339.059" y="-1116.74" width="1400" height="1773"/>
			</defs>
			<clipPath id="SVGID_8_">
				<use xlink:href="#SVGID_7_"  overflow="visible"/>
			</clipPath>
			<rect x="16.444" y="21.773" clip-path="url(#SVGID_8_)" fill="#1C3665" width="12.271" height="12.325"/>
		</g>
	</g>
	<g display="inline">
		<defs>
			<path id="SVGID_9_" d="M33.849,12.678c-1.408-0.713-2.927-1.074-4.516-1.074c-2.672,0-5.184,1.04-7.072,2.93
				c-1.89,1.889-2.93,4.4-2.93,7.072c0,1.347,0.263,2.653,0.781,3.885c0.117,0.277,0.387,0.444,0.671,0.444
				c0.095,0,0.19-0.019,0.282-0.057c0.371-0.156,0.544-0.583,0.388-0.953c-0.442-1.052-0.667-2.168-0.667-3.319
				c0-2.283,0.889-4.43,2.503-6.044s3.761-2.504,6.044-2.504c2.692,0,5.172,1.23,6.805,3.374c0.244,0.32,0.7,0.382,1.02,0.139
				c0.32-0.244,0.382-0.7,0.139-1.02C36.382,14.351,35.189,13.358,33.849,12.678z"/>
		</defs>
		<clipPath id="SVGID_10_">
			<use xlink:href="#SVGID_9_"  overflow="visible"/>
		</clipPath>
		<g clip-path="url(#SVGID_10_)">
			<defs>
				<rect id="SVGID_11_" x="-339.059" y="-1116.74" width="1400" height="1773"/>
			</defs>
			<clipPath id="SVGID_12_">
				<use xlink:href="#SVGID_11_"  overflow="visible"/>
			</clipPath>
			<rect x="14.331" y="6.604" clip-path="url(#SVGID_12_)" fill="#1C3665" width="28.113" height="24.331"/>
		</g>
	</g>
	<g display="inline">
		<defs>
			<path id="SVGID_13_" d="M38.713,18.124c-0.14-0.377-0.559-0.568-0.935-0.429c-0.377,0.14-0.569,0.559-0.429,0.936
				c0.123,0.331,0.226,0.674,0.307,1.019c0.078,0.335,0.377,0.562,0.708,0.562c0.055,0,0.11-0.007,0.166-0.02
				c0.392-0.092,0.634-0.483,0.542-0.874C38.979,18.914,38.857,18.511,38.713,18.124z"/>
		</defs>
		<clipPath id="SVGID_14_">
			<use xlink:href="#SVGID_13_"  overflow="visible"/>
		</clipPath>
		<g clip-path="url(#SVGID_14_)">
			<defs>
				<rect id="SVGID_15_" x="-339.059" y="-1116.74" width="1400" height="1773"/>
			</defs>
			<clipPath id="SVGID_16_">
				<use xlink:href="#SVGID_15_"  overflow="visible"/>
			</clipPath>
			<rect x="32.304" y="12.649" clip-path="url(#SVGID_16_)" fill="#1C3665" width="11.788" height="12.562"/>
		</g>
	</g>
	<g display="inline">
		<defs>
			<path id="SVGID_17_" d="M27.188,37.096c-0.283,0.284-0.283,0.745,0,1.029l0.393,0.393c0.143,0.142,0.328,0.213,0.515,0.213
				s0.372-0.071,0.515-0.213c0.284-0.284,0.284-0.745,0-1.029l-0.393-0.393C27.934,36.812,27.474,36.812,27.188,37.096z"/>
		</defs>
		<clipPath id="SVGID_18_">
			<use xlink:href="#SVGID_17_"  overflow="visible"/>
		</clipPath>
		<g clip-path="url(#SVGID_18_)">
			<defs>
				<rect id="SVGID_19_" x="-339.059" y="-1116.74" width="1400" height="1773"/>
			</defs>
			<clipPath id="SVGID_20_">
				<use xlink:href="#SVGID_19_"  overflow="visible"/>
			</clipPath>
			<rect x="21.976" y="31.883" clip-path="url(#SVGID_20_)" fill="#1C3665" width="11.848" height="11.848"/>
		</g>
	</g>
	<g display="inline">
		<defs>
			<path id="SVGID_21_" d="M42.004,8.936c-3.385-3.384-7.885-5.248-12.671-5.248c-4.785,0-9.285,1.864-12.67,5.248
				c-0.344,0.345-0.679,0.707-0.993,1.077c-0.261,0.306-0.224,0.766,0.083,1.025c0.307,0.261,0.766,0.224,1.025-0.083
				c0.289-0.34,0.597-0.674,0.914-0.99c3.109-3.109,7.244-4.822,11.641-4.822c4.398,0,8.532,1.713,11.642,4.822
				s4.822,7.244,4.822,11.641c0,4.397-1.713,8.532-4.822,11.642l-8.303,8.303l-2.146-2.146c-0.285-0.284-0.745-0.284-1.029,0
				s-0.284,0.744,0,1.028l2.66,2.66c0.143,0.143,0.328,0.213,0.515,0.213s0.372-0.07,0.515-0.213l8.817-8.817
				c3.384-3.384,5.248-7.884,5.248-12.67S45.388,12.321,42.004,8.936z"/>
		</defs>
		<clipPath id="SVGID_22_">
			<use xlink:href="#SVGID_21_"  overflow="visible"/>
		</clipPath>
		<g clip-path="url(#SVGID_22_)">
			<defs>
				<rect id="SVGID_23_" x="-339.059" y="-1116.74" width="1400" height="1773"/>
			</defs>
			<clipPath id="SVGID_24_">
				<use xlink:href="#SVGID_23_"  overflow="visible"/>
			</clipPath>
			<rect x="10.497" y="-1.312" clip-path="url(#SVGID_24_)" fill="#1C3665" width="41.755" height="49.618"/>
		</g>
	</g>
	<g display="inline">
		<defs>
			<path id="SVGID_25_" d="M13.735,14.333c0.107,0.056,0.222,0.082,0.334,0.082c0.264,0,0.518-0.143,0.646-0.393
				c0.169-0.325,0.352-0.648,0.542-0.962c0.208-0.344,0.1-0.791-0.243-1c-0.344-0.208-0.791-0.1-1,0.244
				c-0.207,0.341-0.406,0.693-0.59,1.048C13.239,13.708,13.378,14.147,13.735,14.333z"/>
		</defs>
		<clipPath id="SVGID_26_">
			<use xlink:href="#SVGID_25_"  overflow="visible"/>
		</clipPath>
		<g clip-path="url(#SVGID_26_)">
			<defs>
				<rect id="SVGID_27_" x="-339.059" y="-1116.74" width="1400" height="1773"/>
			</defs>
			<clipPath id="SVGID_28_">
				<use xlink:href="#SVGID_27_"  overflow="visible"/>
			</clipPath>
			<rect x="8.343" y="6.955" clip-path="url(#SVGID_28_)" fill="#1C3665" width="12.021" height="12.46"/>
		</g>
	</g>
	<g display="inline">
		<defs>
			<path id="SVGID_29_" d="M17.692,33.248c-4.432-4.431-5.959-10.881-3.986-16.833c0.127-0.382-0.08-0.793-0.461-0.919
				c-0.382-0.127-0.793,0.08-0.92,0.461c-1.029,3.107-1.189,6.439-0.463,9.637c0.746,3.286,2.406,6.289,4.801,8.683l12.156,12.156
				c0.142,0.142,0.328,0.213,0.514,0.213c0.187,0,0.373-0.071,0.515-0.213c0.284-0.284,0.284-0.745,0-1.029L17.692,33.248z"/>
		</defs>
		<clipPath id="SVGID_30_">
			<use xlink:href="#SVGID_29_"  overflow="visible"/>
		</clipPath>
		<g clip-path="url(#SVGID_30_)">
			<defs>
				<rect id="SVGID_31_" x="-339.059" y="-1116.74" width="1400" height="1773"/>
			</defs>
			<clipPath id="SVGID_32_">
				<use xlink:href="#SVGID_31_"  overflow="visible"/>
			</clipPath>
			<rect x="6.415" y="10.458" clip-path="url(#SVGID_32_)" fill="#1C3665" width="28.646" height="41.187"/>
		</g>
	</g>
</g>
<g>
	<g>
		<defs>
			<path id="SVGID_33_" d="M21.128,29.709c-1.217-1.182-2.176-2.697-2.341-4.43c-0.166-1.738,0.558-3.621,2.38-5.254
				c0.444-0.398,0.687-0.672,0.754-0.873c0.066-0.199,0.084-0.486-0.291-1.195l-4.038-5.283c-0.521-0.521-0.729-0.506-1.125-0.383
				s-0.939,0.531-1.446,1.025c-3.254,3.254-4.277,6.01-3.777,8.898c0.501,2.889,2.679,6.073,6.349,9.743
				c1.507,1.508,3.163,3.164,4.5,4.5c3.67,3.67,6.854,5.848,9.743,6.348c2.889,0.502,5.645-0.521,8.898-3.775
				c0.494-0.508,0.901-1.051,1.024-1.447c0.124-0.395,0.14-0.604-0.382-1.125l-5.283-4.037c-0.71-0.375-0.997-0.357-1.194-0.291
				c-0.201,0.066-0.477,0.309-0.874,0.754c-1.634,1.822-3.516,2.545-5.254,2.379c-1.732-0.164-3.248-1.123-4.43-2.34 M25.627,31.637
				c0.991,1.037,2.187,1.68,3.314,1.809c1.156,0.109,2.377-0.271,3.727-1.779c0.419-0.467,0.877-1.006,1.647-1.266
				c0.771-0.258,1.697-0.098,2.682,0.432c1.879,1.428,3.816,2.873,5.665,4.34c0.881,0.881,1.108,2.041,0.823,2.953
				c-0.284,0.912-0.893,1.602-1.456,2.18c-3.139,3.271-6.856,4.852-10.506,4.299c-3.525-0.609-6.937-3.08-10.718-6.859
				c-1.625-1.627-2.891-2.893-4.5-4.5c-3.78-3.781-6.25-7.194-6.859-10.717c-0.726-4.361,1.59-7.908,4.299-10.508
				c0.578-0.563,1.268-1.172,2.18-1.455c0.911-0.285,2.071-0.059,2.953,0.822c1.467,1.85,2.912,3.787,4.339,5.666
				c0.529,0.984,0.69,1.91,0.432,2.682s-0.799,1.229-1.266,1.646c-1.507,1.35-1.888,2.57-1.778,3.727
				c0.129,1.129,0.77,2.325,1.809,3.315"/>
		</defs>
		<clipPath id="SVGID_34_">
			<use xlink:href="#SVGID_33_"  overflow="visible"/>
		</clipPath>
		<g clip-path="url(#SVGID_34_)">
			<defs>
				<rect id="SVGID_35_" x="-567.223" y="-1116.874" width="1400" height="1773.001"/>
			</defs>
			<clipPath id="SVGID_36_">
				<use xlink:href="#SVGID_35_"  overflow="visible"/>
			</clipPath>
			<rect x="4.312" y="5.449" clip-path="url(#SVGID_36_)" fill="#1C3665" width="44.29" height="44.262"/>
		</g>
	</g>
	<g>
		<defs>
			<path id="SVGID_37_" d="M27.485,12.035c0.027,0.475,0.483,0.885,0.959,0.859c7.543,0,13.637,6.094,13.637,13.635
				c-0.006,0.48,0.43,0.922,0.909,0.922c0.48,0,0.916-0.441,0.909-0.922c0-8.524-6.93-15.454-15.455-15.454
				C27.877,11.08,27.478,11.596,27.485,12.035z M27.485,6.58c0.027,0.477,0.483,0.885,0.959,0.859
				c10.555,0,19.092,8.537,19.092,19.09c-0.007,0.48,0.429,0.922,0.909,0.922s0.916-0.441,0.909-0.922
				c0-11.538-9.372-20.909-20.91-20.909C27.9,5.617,27.478,6.109,27.485,6.58z"/>
		</defs>
		<clipPath id="SVGID_38_">
			<use xlink:href="#SVGID_37_"  overflow="visible"/>
		</clipPath>
		<g clip-path="url(#SVGID_38_)">
			<defs>
				<rect id="SVGID_39_" x="-567.223" y="-1116.874" width="1400" height="1773.001"/>
			</defs>
			<clipPath id="SVGID_40_">
				<use xlink:href="#SVGID_39_"  overflow="visible"/>
			</clipPath>
			<rect x="22.485" y="0.621" clip-path="url(#SVGID_40_)" fill="#1C3665" width="31.869" height="31.831"/>
		</g>
	</g>
</g>
<g display="none">
	<g display="inline">
		<defs>
			<path id="SVGID_41_" d="M16.253,30.596c0,0.72-0.6,1.26-1.26,1.26h-5.34c-0.721,0-1.261-0.6-1.261-1.26
				c0-0.72,0.601-1.26,1.261-1.26h5.279C15.653,29.336,16.253,29.936,16.253,30.596z M1.433,19.796c0-0.72,0.601-1.26,1.261-1.26
				h12.239c0.721,0,1.261,0.6,1.261,1.26c0,0.72-0.601,1.26-1.261,1.26H2.693C1.973,21.056,1.433,20.457,1.433,19.796z
				 M16.253,25.197c0,0.72-0.6,1.26-1.26,1.26h-8.16c-0.72,0-1.26-0.601-1.26-1.26c0-0.721,0.6-1.261,1.26-1.261h8.1
				C15.653,23.936,16.253,24.476,16.253,25.197z M51.473,32.037c0.54,0.479,0.54,1.26,0.12,1.8c-0.24,0.3-0.6,0.42-0.96,0.42
				c-0.3,0-0.6-0.12-0.84-0.3l-8.64-7.74l-2.82,2.16c-0.24,0.18-0.48,0.24-0.78,0.24s-0.54-0.061-0.779-0.24l-2.7-2.101l-8.7,7.681
				c-0.24,0.24-0.54,0.3-0.84,0.3c-0.36,0-0.72-0.12-0.96-0.42c-0.48-0.54-0.42-1.32,0.12-1.8l8.34-7.32l-8.28-6.42
				c-0.54-0.42-0.66-1.26-0.24-1.8s1.261-0.66,1.801-0.24l9.479,7.38l2.76,2.16l12.24-9.48c0.54-0.42,1.38-0.359,1.8,0.24
				c0.42,0.54,0.36,1.38-0.24,1.8l-8.159,6.3L51.473,32.037z M54.713,33.656c0,1.801-1.5,3.301-3.3,3.301h-15.66h-12
				c-1.8,0-3.3-1.5-3.3-3.301v-16.92c0-1.8,1.5-3.3,3.3-3.3h27.66c1.8,0,3.3,1.5,3.3,3.3V33.656z M51.413,10.917h-27.66
				c-3.24,0-5.82,2.64-5.82,5.819v16.86c0,3.24,2.641,5.82,5.82,5.82h27.66c3.24,0,5.82-2.641,5.82-5.82v-16.86
				C57.233,13.556,54.653,10.917,51.413,10.917z"/>
		</defs>
		<clipPath id="SVGID_42_">
			<use xlink:href="#SVGID_41_"  overflow="visible"/>
		</clipPath>
		<g clip-path="url(#SVGID_42_)">
			<defs>
				<rect id="SVGID_43_" x="-801.667" y="-1116.624" width="1400" height="1773"/>
			</defs>
			<clipPath id="SVGID_44_">
				<use xlink:href="#SVGID_43_"  overflow="visible"/>
			</clipPath>
			<rect x="-3.567" y="5.917" clip-path="url(#SVGID_44_)" fill="#1C3665" width="65.801" height="38.5"/>
		</g>
	</g>
</g>
<g display="none">
	<g display="inline">
		<defs>
			<path id="SVGID_45_" d="M47.926,34.694c-1.607,2.287-3.225,4.564-4.843,6.844l-2.362,3.318l-1.428-2.012
				c-1.928-2.717-3.856-5.434-5.78-8.152c-1.016-1.439-1.606-3.143-1.623-4.674c0.005-4.58,2.972-8.32,7.211-9.1
				c0.534-0.098,1.075-0.146,1.612-0.146c4.268,0,7.923,3.029,8.689,7.203C49.85,30.403,49.353,32.665,47.926,34.694z
				 M40.713,19.002c-0.645,0-1.293,0.059-1.932,0.178c-5.092,0.936-8.653,5.395-8.659,10.846c0.02,1.918,0.712,3.938,1.946,5.686
				c1.924,2.721,3.853,5.438,5.781,8.156l1.426,2.01c0.367,0.518,0.896,0.814,1.446,0.814c0.549,0,1.076-0.295,1.447-0.811
				l2.351-3.313c1.621-2.283,3.244-4.566,4.854-6.855c1.711-2.436,2.305-5.146,1.768-8.059
				C50.221,22.641,45.835,19.002,40.713,19.002z"/>
		</defs>
		<clipPath id="SVGID_46_">
			<use xlink:href="#SVGID_45_"  overflow="visible"/>
		</clipPath>
		<g clip-path="url(#SVGID_46_)">
			<defs>
				<rect id="SVGID_47_" x="-1048.282" y="-1117.174" width="1399.999" height="1773"/>
			</defs>
			<clipPath id="SVGID_48_">
				<use xlink:href="#SVGID_47_"  overflow="visible"/>
			</clipPath>
			<rect x="25.122" y="14.002" clip-path="url(#SVGID_48_)" fill="#1C3665" width="31.211" height="37.689"/>
		</g>
	</g>
	<g display="inline">
		<defs>
			<path id="SVGID_49_" d="M40.727,24.834c-2.583,0-4.684,2.1-4.684,4.684c0,2.582,2.101,4.684,4.684,4.684s4.685-2.102,4.685-4.684
				C45.412,26.934,43.31,24.834,40.727,24.834z M40.727,34.903c-2.968,0-5.384-2.416-5.384-5.385s2.416-5.385,5.384-5.385
				c2.969,0,5.385,2.416,5.385,5.385S43.697,34.903,40.727,34.903z"/>
		</defs>
		<clipPath id="SVGID_50_">
			<use xlink:href="#SVGID_49_"  overflow="visible"/>
		</clipPath>
		<g clip-path="url(#SVGID_50_)">
			<defs>
				<rect id="SVGID_51_" x="-1048.282" y="-1117.174" width="1399.999" height="1773"/>
			</defs>
			<clipPath id="SVGID_52_">
				<use xlink:href="#SVGID_51_"  overflow="visible"/>
			</clipPath>
			<rect x="30.343" y="19.133" clip-path="url(#SVGID_52_)" fill="#1C3665" width="20.769" height="20.77"/>
		</g>
	</g>
	<g display="inline">
		<defs>
			<path id="SVGID_53_" d="M37.74,11.852l-0.749,0.271c-0.105,0.043-0.21,0.07-0.315,0.105l-0.623,0.182l-0.21-0.615
				c-0.07-0.211-0.161-0.455-0.28-0.693L35.129,10.2c-0.511-1.189-1.085-2.367-1.743-3.578c2.478,0.975,4.683,2.492,6.476,4.396
				C39.161,11.319,38.447,11.592,37.74,11.852z M34.625,12.782c-2.317,0.553-4.501,0.84-6.685,0.883l-0.693,0.014V5.397
				c1.82,0.035,3.577,0.35,5.229,0.896c1.071,1.826,1.939,3.66,2.632,5.594l0.26,0.713L34.625,12.782z M26.54,13.678l-0.699-0.014
				c-2.178-0.043-4.369-0.33-6.686-0.883L18.413,12.6l0.26-0.713c0.699-1.939,1.561-3.768,2.639-5.594
				c1.652-0.547,3.402-0.861,5.229-0.896V13.678z M26.54,40.993c-1.826-0.035-3.584-0.35-5.229-0.896
				c-1.078-1.826-1.945-3.66-2.639-5.594l-0.26-0.713l0.742-0.182c2.316-0.553,4.502-0.84,6.686-0.883l0.699-0.014V40.993z
				 M13.919,35.372c0.715-0.309,1.449-0.588,2.115-0.826l0.756-0.279c0.104-0.043,0.203-0.07,0.307-0.105l0.623-0.182l0.217,0.607
				c0.092,0.268,0.176,0.49,0.281,0.701l0.426,0.889c0.504,1.189,1.078,2.365,1.75,3.592C17.917,38.793,15.712,37.276,13.919,35.372
				z M9.097,23.563h6.818l0.027,0.65c0.119,3.023,0.566,5.768,1.379,8.406l0.189,0.609l-4.109,1.568
				C10.79,31.766,9.181,27.846,9.097,23.563z M13.401,11.592l4.109,1.568l-0.189,0.609c-0.813,2.639-1.26,5.389-1.379,8.406
				l-0.027,0.658H9.097C9.181,18.543,10.79,14.629,13.401,11.592z M26.519,23.563v8.42l-1.379,0.113
				c-2.105,0.111-4.088,0.385-6.047,0.84l-0.932,0.174l-0.174-0.588c-0.791-2.66-1.232-5.439-1.324-8.26l-0.021-0.699H26.519z
				 M16.642,22.834l0.021-0.707c0.092-2.82,0.533-5.6,1.324-8.26l0.174-0.582l0.596,0.105c0.111,0.021,0.223,0.043,0.357,0.07
				c1.945,0.447,3.904,0.721,6.006,0.832l1.398,0.113v8.428H16.642z M20.394,6.622c-0.672,1.232-1.238,2.395-1.729,3.549
				l-0.447,0.939c-0.113,0.23-0.203,0.469-0.281,0.693l-0.217,0.594l-0.607-0.168c-0.113-0.027-0.219-0.063-0.322-0.098
				l-0.791-0.301c-0.688-0.246-1.395-0.512-2.08-0.813C15.712,9.114,17.917,7.602,20.394,6.622z M26.89,3.641
				c-10.779,0-19.557,8.77-19.557,19.551c0,10.787,8.778,19.557,19.557,19.557c2.367,0,4.642-0.42,6.741-1.203
				c-0.371-0.518-0.735-1.035-1.1-1.555c-0.021,0.035-0.041,0.07-0.063,0.105c-1.645,0.547-3.401,0.861-5.222,0.896v-8.281
				l0.693,0.014c0.154,0,0.301,0.008,0.455,0.014c-0.063-0.223-0.111-0.455-0.154-0.678l-0.98-0.078v-8.42h2.354
				c0.125-0.252,0.266-0.49,0.412-0.729h-2.766v-8.428l1.33-0.105c2.184-0.119,4.165-0.393,6.069-0.84l0.959-0.182l0.175,0.594
				c0.356,1.211,0.651,2.443,0.854,3.689c0.225-0.07,0.448-0.141,0.68-0.203c-0.218-1.225-0.512-2.414-0.868-3.59l-0.189-0.609
				l4.109-1.568c1.421,1.652,2.548,3.563,3.29,5.656c0.707,0.168,1.386,0.398,2.044,0.68C43.417,9.696,35.843,3.641,26.89,3.641z"/>
		</defs>
		<clipPath id="SVGID_54_">
			<use xlink:href="#SVGID_53_"  overflow="visible"/>
		</clipPath>
		<g clip-path="url(#SVGID_54_)">
			<defs>
				<rect id="SVGID_55_" x="-1048.282" y="-1117.174" width="1399.999" height="1773"/>
			</defs>
			<clipPath id="SVGID_56_">
				<use xlink:href="#SVGID_55_"  overflow="visible"/>
			</clipPath>
			<rect x="2.333" y="-1.359" clip-path="url(#SVGID_56_)" fill="#1C3665" width="48.38" height="49.107"/>
		</g>
	</g>
</g>
</svg>
