<?xml version="1.0" encoding="utf-8"?>
<!-- Generator: Adobe Illustrator 16.0.0, SVG Export Plug-In . SVG Version: 6.00 Build 0)  -->
<!DOCTYPE svg PUBLIC "-//W3C//DTD SVG 1.1//EN" "http://www.w3.org/Graphics/SVG/1.1/DTD/svg11.dtd">
<svg version="1.1" id="Layer_1" xmlns="http://www.w3.org/2000/svg" xmlns:xlink="http://www.w3.org/1999/xlink" x="0px" y="0px"
	 width="50px" height="50px" viewBox="0 0 50 50" enable-background="new 0 0 50 50" xml:space="preserve">
<path fill="#FFFFFF" d="M35,39.159c-1.805,2.023-4.408,3.213-7.816,3.571v5.189h-4.342v-5.161c-5.68-0.583-9.194-3.887-10.551-9.902
	l6.714-1.751c0.624,3.782,2.683,5.672,6.178,5.672c1.634,0,2.843-0.403,3.613-1.213c0.77-0.811,1.154-1.787,1.154-2.932
	c0-1.187-0.385-2.087-1.154-2.695c-0.77-0.614-2.482-1.388-5.138-2.327c-2.386-0.828-4.253-1.644-5.596-2.459
	c-1.343-0.806-2.435-1.938-3.272-3.393c-0.837-1.46-1.259-3.161-1.259-5.094c0-2.539,0.753-4.826,2.248-6.858
	c1.496-2.027,3.85-3.269,7.063-3.721V2.08h4.342v4.007c4.854,0.582,7.996,3.326,9.424,8.237l-5.98,2.452
	c-1.17-3.367-2.967-5.049-5.413-5.049c-1.225,0-2.21,0.375-2.949,1.128c-0.744,0.752-1.115,1.665-1.115,2.734
	c0,1.093,0.358,1.931,1.074,2.517c0.712,0.582,2.248,1.302,4.592,2.167c2.58,0.939,4.604,1.83,6.066,2.668
	c1.469,0.836,2.637,1.996,3.516,3.469c0.871,1.478,1.311,3.201,1.311,5.174C37.707,34.616,36.803,37.141,35,39.159L35,39.159z
	 M35,39.159"/>
</svg>
