<?xml version="1.0" encoding="utf-8"?>
<!-- Generator: Adobe Illustrator 16.0.0, SVG Export Plug-In . SVG Version: 6.00 Build 0)  -->
<!DOCTYPE svg PUBLIC "-//W3C//DTD SVG 1.1//EN" "http://www.w3.org/Graphics/SVG/1.1/DTD/svg11.dtd">
<svg version="1.1" id="Layer_1" xmlns="http://www.w3.org/2000/svg" xmlns:xlink="http://www.w3.org/1999/xlink" x="0px" y="0px"
	 width="58.667px" height="50.167px" viewBox="0 0 58.667 50.167" enable-background="new 0 0 58.667 50.167" xml:space="preserve">
<path fill="#1C3665" stroke="#FFFFFF" stroke-miterlimit="10" d="M14.725,31.192c0,0.719-0.6,1.26-1.26,1.26h-5.34
	c-0.721,0-1.26-0.6-1.26-1.26c0-0.721,0.6-1.26,1.26-1.26h5.279C14.125,29.932,14.725,30.532,14.725,31.192z M-0.095,20.391
	c0-0.719,0.602-1.26,1.262-1.26h12.238c0.721,0,1.262,0.6,1.262,1.26c0,0.721-0.602,1.26-1.262,1.26H1.167
	C0.446,21.651-0.095,21.051-0.095,20.391z M14.725,25.792c0,0.721-0.6,1.26-1.26,1.26h-8.16c-0.719,0-1.26-0.6-1.26-1.26
	c0-0.721,0.6-1.26,1.26-1.26h8.1C14.125,24.532,14.725,25.071,14.725,25.792z M49.946,32.631c0.539,0.48,0.539,1.26,0.119,1.801
	c-0.24,0.299-0.6,0.42-0.959,0.42c-0.301,0-0.6-0.121-0.84-0.301l-8.641-7.74l-2.82,2.16c-0.24,0.18-0.48,0.24-0.779,0.24
	c-0.301,0-0.541-0.061-0.779-0.24l-2.701-2.1l-8.699,7.68c-0.24,0.24-0.541,0.301-0.84,0.301c-0.361,0-0.721-0.121-0.961-0.42
	c-0.48-0.541-0.42-1.32,0.121-1.801l8.34-7.32l-8.281-6.42c-0.539-0.42-0.66-1.26-0.24-1.799c0.42-0.541,1.262-0.66,1.801-0.24
	l9.48,7.379l2.76,2.16l12.24-9.48c0.539-0.42,1.379-0.359,1.799,0.24c0.42,0.541,0.361,1.381-0.24,1.801l-8.158,6.299L49.946,32.631
	z M53.186,34.25c0,1.801-1.5,3.301-3.301,3.301h-15.66h-12c-1.799,0-3.299-1.5-3.299-3.301v-16.92c0-1.799,1.5-3.299,3.299-3.299
	h27.66c1.801,0,3.301,1.5,3.301,3.299V34.25z M49.885,11.512h-27.66c-3.24,0-5.82,2.639-5.82,5.818v16.861
	c0,3.24,2.641,5.82,5.82,5.82h27.66c3.24,0,5.82-2.641,5.82-5.82V17.331C55.706,14.151,53.125,11.512,49.885,11.512z"/>
</svg>
