<?xml version="1.0" encoding="utf-8"?>
<!-- Generator: Adobe Illustrator 16.0.0, SVG Export Plug-In . SVG Version: 6.00 Build 0)  -->
<!DOCTYPE svg PUBLIC "-//W3C//DTD SVG 1.1//EN" "http://www.w3.org/Graphics/SVG/1.1/DTD/svg11.dtd">
<svg version="1.1" id="Layer_1" xmlns="http://www.w3.org/2000/svg" xmlns:xlink="http://www.w3.org/1999/xlink" x="0px" y="0px"
	 width="50px" height="50px" viewBox="0 0 50 50" enable-background="new 0 0 50 50" xml:space="preserve">
<g id="Shape_28">
	<g>
		<path fill="#FFFFFF" d="M31.479,29.808h-0.861c3.502-1.319,6.027-4.646,6.027-8.604c0-5.048-4.133-9.178-9.184-9.178
			c-5.052,0-9.185,4.13-9.185,9.178c0,3.958,2.526,7.285,6.027,8.604h-0.861c-4.419,0-8.036-3.614-8.036-8.031V5.83
			c0-1.836-1.435-3.499-3.329-3.557c-1.952-0.058-3.559,1.491-3.559,3.441v18.012c0,5.679,2.526,11.071,6.888,14.686v7.457
			c0,0.631,0.517,1.146,1.148,1.146h24.109c0.632,0,1.147-0.516,1.147-1.146v-5.736C41.811,34.454,37.162,29.808,31.479,29.808z"/>
	</g>
</g>
</svg>
