<?xml version="1.0" encoding="utf-8"?>
<!-- Generator: Adobe Illustrator 16.0.0, SVG Export Plug-In . SVG Version: 6.00 Build 0)  -->
<!DOCTYPE svg PUBLIC "-//W3C//DTD SVG 1.1//EN" "http://www.w3.org/Graphics/SVG/1.1/DTD/svg11.dtd">
<svg version="1.1" id="Layer_1" xmlns="http://www.w3.org/2000/svg" xmlns:xlink="http://www.w3.org/1999/xlink" x="0px" y="0px"
	 width="50px" height="50px" viewBox="0 0 50 50" enable-background="new 0 0 50 50" xml:space="preserve">
<g id="Shape_27">
	<g>
		<path fill-rule="evenodd" clip-rule="evenodd" fill="#FFFFFF" d="M15.781,34.56l2.775-2.773c0.397-0.397,0.617-0.928,0.617-1.49
			c0-0.564-0.22-1.095-0.619-1.494c-0.4-0.398-0.931-0.619-1.495-0.619c-0.565,0-1.096,0.22-1.495,0.619l-3.328,3.326
			c-0.398,0.398-0.619,0.929-0.619,1.493s0.22,1.096,0.619,1.494s0.931,0.619,1.495,0.619s1.096-0.219,1.495-0.619l0.548-0.548
			C15.777,34.565,15.778,34.563,15.781,34.56z M41,29.21c-0.002-0.001-11.86-11.852-11.86-11.852
			c-1.32,0.197-2.568,1.717-3.779,3.188c-1.439,1.75-2.927,3.56-4.781,3.56c-0.383,0-0.77-0.079-1.15-0.234
			c-0.477-0.194-0.804-0.556-0.97-1.074c-0.646-2.011,1.401-6.067,2.713-8.147c0.73-1.16,1.931-2.732,3.635-3.963
			c-1.349-0.945-2.841-1.496-4.446-1.632c-1.945-0.164-3.703,0.508-5.255,1.102c-1.281,0.489-2.386,0.915-3.412,0.825
			c-1.277-0.107-2.472-0.478-3.266-0.777c-0.383-0.145-0.876-0.01-1.11,0.325L0.7,19.934c-0.235,0.333-0.17,0.815,0.145,1.076
			l7.899,6.543l0.615-0.616c0.539-0.538,1.257-0.834,2.019-0.834s1.479,0.296,2.018,0.834c0.539,0.538,0.836,1.255,0.836,2.018
			c0,0.048-0.005,0.095-0.007,0.144l0.818-0.818c0.538-0.539,1.256-0.835,2.018-0.835s1.479,0.296,2.018,0.835
			s0.836,1.255,0.836,2.017c0,0.132-0.012,0.263-0.03,0.391c0.384-0.186,0.805-0.286,1.243-0.286c0.762,0,1.479,0.297,2.019,0.836
			c0.539,0.538,0.836,1.254,0.835,2.016c0,0.33-0.059,0.651-0.166,0.953c2.253,1.584,1.879,2.73,1.238,3.856
			c-0.23,0.405-0.429,0.755-0.331,1.084c0.115,0.387,0.632,0.821,1.533,1.291c0.487,0.194,1.046,0.299,1.612,0.299
			c1.067,0,2.048-0.359,2.646-0.952c-0.029-0.028-0.06-0.053-0.088-0.08l-2.821-2.818c-0.145-0.146-0.145-0.378,0-0.522
			c0.146-0.146,0.379-0.146,0.523,0l2.82,2.817c0.399,0.399,0.931,0.62,1.496,0.62c0.563,0,1.095-0.22,1.494-0.619
			c0.398-0.399,0.619-0.93,0.619-1.494c0-0.563-0.219-1.094-0.618-1.493l-4.599-4.596c-0.145-0.145-0.145-0.378,0-0.523
			c0.145-0.145,0.377-0.145,0.523,0l4.596,4.594c0.004,0.005,1.295,1.296,1.295,1.296c0.399,0.398,0.931,0.618,1.496,0.618
			c0.564,0,1.095-0.218,1.494-0.618s0.62-0.93,0.62-1.494s-0.22-1.095-0.62-1.494c-0.002-0.002-7.023-7.02-7.023-7.02
			c-0.145-0.145-0.145-0.377,0-0.521c0.145-0.146,0.378-0.146,0.522,0l7.715,7.708c0.398,0.398,0.93,0.619,1.495,0.619
			c0.564,0,1.096-0.22,1.494-0.619c0.825-0.824,0.825-2.164,0-2.988L41,29.21z M13.491,28.954c0-0.565-0.219-1.096-0.619-1.494
			c-0.398-0.399-0.93-0.619-1.495-0.619c-0.564,0-1.096,0.219-1.495,0.619l-1.479,1.478c-0.399,0.399-0.62,0.93-0.62,1.494
			s0.221,1.096,0.62,1.494s0.93,0.618,1.494,0.618s1.096-0.219,1.495-0.618l1.479-1.479C13.271,30.048,13.491,29.519,13.491,28.954z
			 M49.337,21.985l-5.801-9.927c-0.207-0.353-0.687-0.529-1.079-0.418c-0.817,0.231-2.039,0.5-3.32,0.5
			c-1.029,0-2.095-0.515-3.33-1.11c-1.496-0.723-3.192-1.541-5.145-1.541c-1.993,0-3.659,0.638-5.021,1.526
			c-1.83,1.2-3.096,2.842-3.843,4.028c-1.664,2.638-3.103,6.07-2.636,7.526c0.101,0.311,0.273,0.506,0.547,0.618
			c0.291,0.118,0.584,0.179,0.87,0.179c1.506,0,2.88-1.673,4.209-3.29c1.36-1.652,2.764-3.361,4.463-3.474
			c0.008-0.001,0.016-0.001,0.024-0.001c0.098,0,0.191,0.037,0.262,0.107l7.334,7.331l4.43,4.426l7.8-5.421
			C49.438,22.813,49.543,22.338,49.337,21.985z M24.012,39.354c-0.187-0.631,0.123-1.178,0.396-1.659
			c0.467-0.821,0.87-1.537-0.933-2.828c-0.099,0.141-0.208,0.275-0.332,0.399l-3.328,3.325c-0.157,0.157-0.331,0.291-0.515,0.405
			c1.93,2.457,4.645,2.069,5.924,1.699C24.541,40.255,24.15,39.82,24.012,39.354z M23.241,33.251c0-0.563-0.22-1.095-0.619-1.493
			c-0.399-0.4-0.931-0.619-1.496-0.619c-0.563,0-1.095,0.218-1.494,0.618l-0.549,0.549c-0.003,0.002-0.004,0.004-0.006,0.007
			l-2.775,2.772c-0.822,0.825-0.821,2.163,0.003,2.986c0.399,0.397,0.93,0.619,1.494,0.619s1.096-0.22,1.494-0.62l3.328-3.325
			C23.02,34.346,23.241,33.815,23.241,33.251z"/>
	</g>
</g>
</svg>
