<?xml version="1.0" encoding="utf-8"?>
<!-- Generator: Adobe Illustrator 16.0.0, SVG Export Plug-In . SVG Version: 6.00 Build 0)  -->
<!DOCTYPE svg PUBLIC "-//W3C//DTD SVG 1.1//EN" "http://www.w3.org/Graphics/SVG/1.1/DTD/svg11.dtd">
<svg version="1.1" id="Layer_1" xmlns="http://www.w3.org/2000/svg" xmlns:xlink="http://www.w3.org/1999/xlink" x="0px" y="0px"
	 width="190px" height="54px" viewBox="0 0 190 54" enable-background="new 0 0 190 54" xml:space="preserve">
<path fill="#4195C7" d="M31.314,20.857H0l9.901-7.36h19.878C29.779,13.498,31.917,17.312,31.314,20.857"/>
<path fill="#4195C7" d="M18.011,38.229c-0.347,0.037-0.714,0.063-1.078,0.073c-0.175,0.011-0.348,0.011-0.513,0.011v-4.408h-5.504
	l-0.019,3.036C6.07,34.215,4.616,28.025,4.36,23.984l26.9-0.138c0,0-1.372,8.549-7.672,12.5v-2.452h-5.586L18.011,38.229z
	 M16.466,26.746h-5.559v5.659h5.559V26.746z M23.551,26.746h-5.558v5.659h5.558V26.746z"/>
<path fill="#FFFFFF" d="M46.656,11.111c-0.659,3.155-2.845,5.357-4.874,4.919c-2.03-0.439-3.136-3.355-2.479-6.509
	c0.66-3.154,2.843-5.359,4.875-4.92C46.207,5.042,47.324,7.958,46.656,11.111"/>
<path fill="#FFFFFF" d="M44.307,22.805c-1.107,1.592,0.648,7.698,2.568,14.345c1.92,6.647-2.312,5.157-2.725,4.143
	c-3.207-7.798-5.933-8.348-5.933-8.348s-2.881,8.366-16.923,10.698C7.25,45.973,3.063,35.331,3.063,35.331s5.597,9.334,16.776,5.531
	c11.183-3.812,15.297-16.533,12.692-26.771C29.924,3.852,21.712,1,21.712,1c11.703,0.384,16.321,13.852,16.824,16.275l1.856,1.434
	l0.366,3.694l2.175-3.511l3.265,0.367l3.812,9.992L44.307,22.805z"/>
<polygon fill="#3C97CC" points="49.599,4.428 49.599,4.721 49.244,4.721 49.244,6.165 48.933,6.165 48.933,4.721 48.576,4.721 
	48.576,4.428 "/>
<polygon fill="#3C97CC" points="49.781,6.165 49.781,4.455 50.22,4.455 50.496,5.589 50.769,4.455 51.209,4.455 51.209,6.165 
	50.934,6.165 50.934,4.811 50.604,6.165 50.395,6.165 50.065,4.811 50.065,6.165 "/>
<polygon fill="#3C97CC" points="186.32,9.041 186.32,9.705 185.507,9.705 185.507,13.017 184.79,13.017 184.79,9.705 183.976,9.705 
	183.976,9.041 "/>
<polygon fill="#3C97CC" points="186.75,13.017 186.75,9.094 187.754,9.094 188.373,11.691 188.997,9.094 190,9.094 190,13.017 
	189.379,13.017 189.379,9.908 188.612,13.017 188.135,13.017 187.371,9.908 187.371,13.017 "/>
<path fill="#FFFFFF" d="M54.467,3.896h9.372c3.393,0,5.879,0.866,7.409,2.651c1.578,1.782,2.344,4.329,2.344,7.693
	c0,0.815-0.096,1.68-0.24,2.497c-0.192,0.865-0.43,1.631-0.765,2.343c-0.334,0.712-0.814,1.376-1.387,1.936
	c-0.573,0.562-1.194,1.02-1.958,1.377c1.623,0.764,2.866,1.885,3.774,3.312c0.862,1.427,1.34,3.413,1.34,5.96
	c0,1.633-0.192,3.109-0.526,4.485s-0.908,2.547-1.722,3.565c-0.765,1.021-1.816,1.784-3.059,2.396
	c-1.244,0.563-2.773,0.867-4.589,0.867h-9.945V3.896H54.467z M60.779,19.896h2.294c1.196,0,2.199-0.407,3.013-1.275
	c0.811-0.866,1.243-2.087,1.243-3.718c0-3.67-1.387-5.505-4.112-5.505h-2.39v10.498H60.779z M60.779,37.475h2.629
	c1.672,0,2.868-0.509,3.538-1.529c0.67-1.018,1.004-2.497,1.004-4.484c0-2.038-0.384-3.515-1.148-4.534
	c-0.765-0.968-2.103-1.477-4.014-1.477H60.73v12.025H60.779z"/>
<path fill="#FFFFFF" d="M95.678,13.831v29.146h-5.402v-2.904c-0.621,0.561-1.149,1.019-1.625,1.479
	c-0.479,0.459-0.957,0.815-1.483,1.071c-0.527,0.304-1.052,0.509-1.673,0.662c-0.622,0.15-1.338,0.253-2.151,0.253
	c-1.53,0-2.725-0.561-3.538-1.63c-0.813-1.071-1.244-2.599-1.244-4.483V13.831h5.691v22.626c0,0.712,0.191,1.272,0.573,1.579
	c0.381,0.356,0.861,0.509,1.481,0.509c0.621,0,1.196-0.203,1.77-0.561c0.574-0.356,1.194-0.815,1.864-1.325V13.78h5.737V13.831z"/>
<path fill="#FFFFFF" d="M110.927,13.831h5.738l-7.172,31.34c-0.286,1.322-0.67,2.443-1.098,3.311
	c-0.432,0.866-1.005,1.578-1.627,2.141c-0.621,0.561-1.385,0.915-2.198,1.171s-1.77,0.356-2.82,0.356h-2.391v-4.994h1.387
	c1.434,0,2.391-0.406,2.963-1.171c0.526-0.813,0.813-1.987,0.813-3.516c0-0.611-0.049-1.224-0.191-1.835
	c-0.096-0.611-0.239-1.274-0.431-1.987l-5.928-24.765h5.784l3.681,18.651h0.095L110.927,13.831z"/>
<path fill="#3C97CC" d="M129.285,21.934c-0.43-2.395-1.481-3.617-3.25-3.617c-0.765,0-1.338,0.203-1.816,0.611
	c-0.479,0.408-0.669,0.968-0.669,1.732s0.237,1.477,0.764,2.088c0.526,0.614,1.196,1.274,1.96,1.885
	c0.813,0.614,1.674,1.326,2.582,1.99c0.908,0.712,1.769,1.477,2.582,2.342c0.811,0.866,1.434,1.835,1.96,2.904
	c0.524,1.121,0.766,2.396,0.766,3.821c0,1.326-0.192,2.446-0.575,3.415c-0.382,0.968-0.955,1.783-1.674,2.446
	c-0.716,0.661-1.576,1.172-2.533,1.478c-1.003,0.306-2.056,0.509-3.203,0.509c-2.486,0-4.495-0.712-5.88-2.139
	c-1.434-1.428-2.343-3.415-2.773-6.015l4.973-1.478c0.192,1.224,0.525,2.294,1.053,3.211c0.525,0.918,1.434,1.376,2.724,1.376
	c0.767,0,1.34-0.205,1.816-0.663c0.479-0.459,0.717-1.07,0.717-1.886c0-0.814-0.238-1.579-0.765-2.292
	c-0.524-0.714-1.195-1.376-1.96-2.038c-0.812-0.663-1.672-1.325-2.581-1.986c-0.908-0.664-1.769-1.428-2.582-2.294
	c-0.812-0.815-1.433-1.731-1.961-2.752c-0.523-1.019-0.764-2.19-0.764-3.515c0-1.172,0.19-2.193,0.574-3.158
	c0.383-0.969,0.908-1.785,1.626-2.447c0.716-0.664,1.482-1.223,2.438-1.581c0.908-0.355,1.912-0.559,3.011-0.559
	c2.247,0,4.064,0.714,5.499,2.191c1.435,1.427,2.39,3.312,2.821,5.605L129.285,21.934z"/>
<path fill="#3C97CC" d="M137.7,3.896h5.688v5.502H137.7V3.896z M137.7,13.832h5.688v29.147H137.7V13.832z"/>
<path fill="#3C97CC" d="M159.643,42.979v-3.059h-0.095c-0.957,1.273-1.865,2.19-2.678,2.753c-0.861,0.559-1.961,0.813-3.396,0.813
	c-1.814,0-3.201-0.661-4.254-2.037c-1.05-1.377-1.53-3.414-1.53-6.065V21.424c0-2.649,0.526-4.688,1.53-6.063
	c1.053-1.377,2.439-2.039,4.254-2.039c0.622,0,1.148,0.05,1.675,0.204c0.478,0.102,0.955,0.305,1.386,0.612
	c0.432,0.255,0.862,0.611,1.34,0.967c0.43,0.358,0.955,0.815,1.529,1.273V3.896h5.689v39.083H159.643z M159.309,19.792
	c-0.574-0.456-1.099-0.813-1.626-1.067c-0.525-0.307-1.051-0.459-1.625-0.459c-0.765,0-1.435,0.304-1.961,0.915
	c-0.524,0.611-0.764,1.886-0.764,3.771v10.854c0,1.937,0.239,3.16,0.764,3.771c0.526,0.612,1.196,0.918,1.961,0.918
	c0.574,0,1.1-0.152,1.625-0.458c0.527-0.307,1.052-0.664,1.626-1.07V19.792z"/>
<path fill="#3C97CC" d="M186.893,29.576h-11.999v4.229c0,1.683,0.285,2.904,0.813,3.669c0.524,0.765,1.337,1.121,2.341,1.121
	c1.005,0,1.817-0.356,2.343-1.121c0.527-0.765,0.813-1.936,0.813-3.669v-0.662h5.688c-0.049,1.528-0.191,2.955-0.526,4.229
	c-0.335,1.274-0.859,2.344-1.529,3.262c-0.717,0.918-1.626,1.632-2.726,2.139c-1.1,0.513-2.438,0.766-4.063,0.766
	c-1.624,0-3.013-0.253-4.111-0.766c-1.099-0.507-2.056-1.272-2.726-2.24c-0.716-0.969-1.243-2.089-1.529-3.466
	c-0.285-1.324-0.478-2.802-0.478-4.382v-8.559c0-1.581,0.144-3.059,0.478-4.384c0.286-1.324,0.813-2.497,1.529-3.465
	c0.717-0.968,1.627-1.681,2.726-2.241c1.099-0.51,2.487-0.765,4.111-0.765c1.626,0,3.013,0.255,4.112,0.765
	c1.1,0.509,2.055,1.273,2.724,2.241c0.718,0.968,1.244,2.09,1.531,3.465c0.286,1.325,0.478,2.803,0.478,4.384V29.576z
	 M181.155,24.583v-1.529c0-1.681-0.286-2.904-0.813-3.667c-0.525-0.767-1.339-1.121-2.342-1.121c-1.004,0-1.817,0.354-2.343,1.121
	c-0.525,0.763-0.814,1.935-0.814,3.667v1.529H181.155z"/>
<rect y="1" fill="none" width="190" height="51.149"/>
</svg>
